<?xml version="1.0" encoding="UTF-8" standalone="no"?> <svg id="Layer_1" enable-background="new 0 0 511.999 511.999" height="512" viewBox="0 0 511.999 511.999" width="512" xmlns="http://www.w3.org/2000/svg"><g><path d="m352.795 70.325-66.833-9.788-29.962-60.537-29.963 60.537-66.833 9.788 48.315 47.204-11.342 66.587 59.823-31.364 59.823 31.364-11.343-66.587z" fill="#ffd321"/><g><path d="m241.012 471.751h30v40.248h-30z" fill="#fff16b"/></g><g><path d="m241.012 276.891h30v164.858h-30z" fill="#fff16b"/></g><g><path d="m241.012 192.422h30v54.467h-30z" fill="#fff16b"/></g><g><path d="m346.389 483.485h-30c0-35.708 1.062-73.232 8.764-105.742 7.84-33.095 21.87-59.32 44.153-82.532l21.643 20.775c-18.419 19.187-30.051 41.008-36.604 68.672-6.992 29.514-7.956 64.941-7.956 98.827z" fill="#fff16b"/></g><path d="m429.933 221.888c-20.43 0-37.05 16.62-37.05 37.05 0 20.429 16.62 37.049 37.05 37.049 20.429 0 37.049-16.62 37.049-37.049 0-20.43-16.62-37.05-37.049-37.05z" fill="#ffd321"/><g><path d="m195.622 483.485h-30c0-33.888-.964-69.314-7.955-98.827-6.554-27.664-18.185-49.485-36.604-68.672l21.642-20.775c22.284 23.212 36.314 49.438 44.154 82.532 7.702 32.51 8.763 70.034 8.763 105.742z" fill="#fff16b"/></g><g><path d="m108.619 18.459h30v30.002h-30z" fill="#98f9ff" transform="matrix(.707 -.707 .707 .707 12.547 97.211)"/></g><g><path d="m108.619 158.468h30v30.002h-30z" fill="#98f9ff" transform="matrix(.707 -.707 .707 .707 -86.453 138.217)"/></g><g><path d="m48.615 88.463h30v30.002h-30z" fill="#5ecbf1" transform="matrix(.707 -.707 .707 .707 -54.527 75.285)"/></g><g><path d="m373.379 18.46h30.002v30h-30.002z" fill="#98f9ff" transform="matrix(.707 -.707 .707 .707 90.094 284.427)"/></g><g><path d="m373.379 158.469h30.002v30h-30.002z" fill="#98f9ff" transform="matrix(.707 -.707 .707 .707 -8.907 325.434)"/></g><g><path d="m433.383 88.464h30.002v30h-30.002z" fill="#5ecbf1" transform="matrix(.707 -.707 .707 .707 58.169 347.359)"/></g><path d="m82.079 221.888c-20.429 0-37.049 16.62-37.049 37.05 0 20.429 16.62 37.049 37.049 37.049s37.049-16.62 37.049-37.049c0-20.43-16.62-37.05-37.049-37.05z" fill="#ffd321"/><g><path d="m433.333 360.667h30v30.002h-30z" fill="#bee75e"/></g><g><path d="m383.331 410.67h30v30.002h-30z" fill="#5bc980"/></g><g><path d="m48.678 360.667h30v30.002h-30z" fill="#bee75e"/></g><g><path d="m98.681 410.67h30v30.002h-30z" fill="#5bc980"/></g><g><path d="m346.389 483.485h-30c0-35.708 1.062-73.232 8.764-105.742 7.84-33.095 21.87-59.32 44.153-82.532l21.643 20.775c-18.419 19.187-30.051 41.008-36.604 68.672-6.992 29.514-7.956 64.941-7.956 98.827z" fill="#ffd321"/></g><path d="m429.933 221.888c-20.43 0-37.05 16.62-37.05 37.05 0 20.429 16.62 37.049 37.05 37.049 20.429 0 37.049-16.62 37.049-37.049 0-20.43-16.62-37.05-37.049-37.05z" fill="#ffaf00"/><g><path d="m373.379 18.46h30.002v30h-30.002z" fill="#5ecbf1" transform="matrix(.707 -.707 .707 .707 90.094 284.427)"/></g><g><path d="m373.379 158.469h30.002v30h-30.002z" fill="#5ecbf1" transform="matrix(.707 -.707 .707 .707 -8.907 325.434)"/></g><g><path d="m433.383 88.464h30.002v30h-30.002z" fill="#4793ff" transform="matrix(.707 -.707 .707 .707 58.169 347.359)"/></g><g><path d="m433.333 360.667h30v30.002h-30z" fill="#5bc980"/></g><g><path d="m383.331 410.67h30v30.002h-30z" fill="#00a78e"/></g><path d="m304.48 117.529 48.315-47.204-66.833-9.788-29.962-60.537v152.752l59.823 31.364z" fill="#ffaf00"/><g fill="#ffd321"><path d="m256 471.751h15.013v40.248h-15.013z"/><path d="m256 276.891h15.013v164.858h-15.013z"/><path d="m256 192.422h15.013v54.467h-15.013z"/></g></g></svg>