<?xml version="1.0" encoding="iso-8859-1"?>
<!-- Generator: Adobe Illustrator 19.0.0, SVG Export Plug-In . SVG Version: 6.00 Build 0)  -->
<svg version="1.1" id="Capa_1" xmlns="http://www.w3.org/2000/svg" xmlns:xlink="http://www.w3.org/1999/xlink" x="0px" y="0px"
	 viewBox="0 0 512 512" style="enable-background:new 0 0 512 512;" xml:space="preserve">
<path style="fill:#415A6B;" d="M199.467,472.533C208,494.933,230.4,512,256,512s48-16,56.533-39.467H199.467z"/>
<path style="fill:#E8EAE9;" d="M333.867,397.867c6.4-14.933,14.933-27.733,27.733-38.4c37.333-33.067,58.667-83.2,53.333-137.6
	c-8.533-72.533-67.2-132.267-140.8-139.733C178.133,71.467,96,146.133,96,241.067c0,48,20.267,90.667,53.333,119.467
	c11.733,10.667,21.333,24.533,27.733,38.4h156.8V397.867z"/>
<path style="fill:#344A5E;" d="M333.867,466.133v-68.267H178.133v68.267c0,10.667,8.533,19.2,19.2,19.2h117.333
	C325.333,485.333,333.867,476.8,333.867,466.133z"/>
<g>
	<path style="fill:#415A6B;" d="M334.933,420.267H177.067c-7.467,0-12.8-5.333-12.8-12.8l0,0c0-7.467,5.333-12.8,12.8-12.8h157.867
		c7.467,0,12.8,5.333,12.8,12.8l0,0C347.733,414.933,342.4,420.267,334.933,420.267z"/>
	<path style="fill:#415A6B;" d="M334.933,467.2H177.067c-7.467,0-12.8-5.333-12.8-12.8l0,0c0-7.467,5.333-12.8,12.8-12.8h157.867
		c7.467,0,12.8,5.333,12.8,12.8l0,0C347.733,461.867,342.4,467.2,334.933,467.2z"/>
</g>
<g>
	<path style="fill:#FFD15C;" d="M425.6,409.6c4.267-4.267,4.267-10.667,0-13.867l-26.667-26.667c-4.267-4.267-10.667-4.267-13.867,0
		c-4.267,4.267-4.267,10.667,0,13.867l26.667,26.667C414.933,413.867,421.333,413.867,425.6,409.6z"/>
	<path style="fill:#FFD15C;" d="M496,240c0-5.333-4.267-10.667-10.667-10.667H448c-5.333,0-10.667,4.267-10.667,10.667
		c0,5.333,4.267,10.667,10.667,10.667h37.333C491.733,250.667,496,245.333,496,240z"/>
	<path style="fill:#FFD15C;" d="M425.6,70.4c-4.267-4.267-10.667-4.267-13.867,0l-26.667,26.667c-4.267,4.267-4.267,10.667,0,13.867
		c4.267,4.267,10.667,4.267,13.867,0L425.6,84.267C429.867,81.067,429.867,74.667,425.6,70.4z"/>
	<path style="fill:#FFD15C;" d="M256,0c-5.333,0-10.667,4.267-10.667,10.667V48c0,5.333,4.267,10.667,10.667,10.667
		c5.333,0,10.667-4.267,10.667-10.667V10.667C266.667,4.267,261.333,0,256,0z"/>
	<path style="fill:#FFD15C;" d="M86.4,70.4c-4.267,4.267-4.267,10.667,0,13.867l26.667,26.667c4.267,4.267,10.667,4.267,13.867,0
		c4.267-4.267,4.267-10.667,0-13.867L100.267,70.4C97.067,66.133,90.667,66.133,86.4,70.4z"/>
	<path style="fill:#FFD15C;" d="M16,240c0,5.333,4.267,10.667,10.667,10.667H64c5.333,0,10.667-4.267,10.667-10.667
		c0-6.4-4.267-10.667-10.667-10.667H25.6C20.267,230.4,16,234.667,16,240z"/>
	<path style="fill:#FFD15C;" d="M86.4,409.6c4.267,4.267,10.667,4.267,13.867,0l26.667-26.667c4.267-4.267,4.267-10.667,0-13.867
		c-4.267-4.267-10.667-4.267-13.867,0L86.4,395.733C82.133,398.933,82.133,405.333,86.4,409.6z"/>
</g>
<path style="fill:#F3705A;" d="M256,350.933c0,0-102.4-57.6-102.4-129.067c0-28.8,23.467-53.333,53.333-53.333
	c22.4,0,41.6,13.867,49.067,33.067c7.467-19.2,26.667-33.067,49.067-33.067c28.8,0,53.333,23.467,53.333,53.333
	C358.4,293.333,256,350.933,256,350.933z"/>
<g>
</g>
<g>
</g>
<g>
</g>
<g>
</g>
<g>
</g>
<g>
</g>
<g>
</g>
<g>
</g>
<g>
</g>
<g>
</g>
<g>
</g>
<g>
</g>
<g>
</g>
<g>
</g>
<g>
</g>
</svg>
