<?xml version="1.0" encoding="utf-8"?>
<!-- Generator: Adobe Illustrator 24.0.2, SVG Export Plug-In . SVG Version: 6.00 Build 0)  -->
<svg version="1.1" id="Layer_1" xmlns="http://www.w3.org/2000/svg" xmlns:xlink="http://www.w3.org/1999/xlink" x="0px" y="0px"
	 viewBox="0 0 512 512" enable-background="new 0 0 512 512" xml:space="preserve">
<g>
	<g>
		<path fill="#FF916E" d="M250.3,350.6c0.6,1.4,1.1,2.9,1.6,4.4c-1.7,5.5-3,11.1-3.5,14.4c-5.9,36.5-5.7,49-5.7,49H92.1
			c0,0,24.9-109.9,25.9-129c0.2-3.8,0.2-7.3-0.1-10.6c-0.2-4.1-0.8-7.7-1.8-10.7c-5.4-17.1-31-73.7-25.5-109.3
			C96,123.2,131,66.6,211.1,66.6c14.1,0,26.6,1.9,37.6,4.9c-0.5,0.1-0.9,0.3-1.4,0.5c-34.8,12.7-51.5,35.9-54.5,40.4
			c-11.3,17.1-19.9,52.6-19.9,67.3c0,1.6,0,3.3,0.1,5c0.2,13.2,0.3,29.5-8.1,41.7c-11.6,16.9-18.5,27.6-16.2,34.1
			c2.2,6.1,10.3,9.9,17.6,11.1c0.1,1.1,0.1,2.3,0,3.8c-0.1,2.5-0.5,5-0.9,7.2l-0.3,1.9c-0.5,3.1-0.6,5.3,0.1,6.8
			c0.8,1.9,2.9,3.4,5.3,4.6c-0.9,0.6-1.5,1.3-1.9,2.1c-0.9,1.4-1.5,3.7-0.1,6.9c0.7,1.5,1.9,3,3.7,4.3c1.3,1.1,2.9,2.1,4.4,3
			c3,1.9,5.8,3.6,6.1,5.7c0.1,1.7-0.7,4.9-1.5,8c-0.3,1.4-0.7,2.8-1,4.2c-1.4,6.4-2.3,13.5,1.9,18.5c5.2,5.9,16.6,10.8,30.1,10.8
			c4.2,0,8.6-0.5,13.2-1.6C239.7,354.6,246.2,352.5,250.3,350.6z"/>
	</g>
</g>
<g>
	<g>
		<g>
			<path fill="#FF916E" d="M355.3,259.2c-1.8,5-9.9,8.8-17.4,9.6c-0.1,0.4-0.2,0.9-0.2,1.4c-0.3,1.6-0.3,3.4-0.2,5.2
				c0.2,3.3,0.9,6.6,1.3,9.4c0.3,2.5,0.5,4.4,0.1,5.3c-1.1,2.6-7.7,5-11.8,6c7.4,0.6,10.5,3.2,8.5,7.6c-0.6,1.3-1.6,2.3-2.8,3.3
				c-4.3,3.4-11.1,5.7-11.6,10.7c-0.3,3,1.4,8,2.5,13.1c1.3,5.9,2.1,12-1.4,16c-6.4,7.4-23,12.4-40.5,8.4c-16.3-3.8-22.3-6-26.2-8
				c-0.3-0.1-0.5-0.3-0.7-0.4c-0.2-0.4-0.4-0.8-0.6-1.2c-0.3-0.7-1-1.3-1.7-1.5c-0.8-0.2-1.7-0.1-2.3,0.3l-0.6,0.3h-0.1
				c-3.2,1.7-8.5,3.7-25.5,7.7c-16.3,3.8-32-0.8-37.7-7.4c-2.6-3-1.8-8.5-0.7-13.5c0.3-1.4,0.7-2.8,1-4.1c1-3.9,1.8-7.3,1.6-9.9
				c-0.5-5-4.9-7.7-8.7-10.1c-1.4-0.8-2.7-1.7-3.9-2.6c-1-0.8-1.7-1.5-2-2.2c-0.2-0.4-0.5-1.1-0.2-1.6c0.1-0.2,1-1.5,6.4-2
				c1.4-0.1,2.5-1.2,2.6-2.6c0.1-1.4-0.9-2.6-2.2-3c-5.3-1.3-9.3-3.4-9.8-4.2c-0.1-0.2-0.1-1,0.3-3.8l0.3-1.9c0.4-2.4,0.8-5.1,1-7.7
				c0.2-2.2,0.1-4.1-0.1-5.6c-0.1-0.8-0.2-1.4-0.5-2c-0.3-1.1-1.3-1.8-2.4-1.9c-7-0.7-13.7-4.2-14.9-7.7
				c-1.5-4.2,8.3-18.4,15.5-28.9c9.4-13.7,9.3-31,9.1-45c-0.1-1.7-0.1-3.4-0.1-5c0-14,8.5-48.3,18.9-64.1
				c2.9-4.3,18.6-26.2,51.7-38.2c2.9-1,5.8-2,8.8-2.8c32.3,11.6,49.1,32.8,53.5,39.4c10.9,16.5,19.4,51.5,19.4,65.7
				c0,14.2-1.5,33.8,8.6,48.4C349.6,242.4,357.2,254,355.3,259.2z"/>
		</g>
	</g>
</g>
<g>
	<g>
		<g>
			<path fill="#77D0DE" d="M391.7,289.3c0.9,18.6,25.6,124.5,25.8,125.6c0.2,0.9-0.1,1.7-0.6,2.4c-0.6,0.7-1.4,1.1-2.2,1.1H264.2
				c-0.9,0-1.7,0.7-2.3,0c-0.5-0.7-0.7-2.8-0.5-3.7c0.1-0.2-0.1-9.6-5.8-44.9c-0.6-3.5-1.9-9.3-3.7-14.9c0.9-2.9,1.9-5.7,3.1-8.2
				c3.2,7.3,5.4,17.1,6.3,22.2c4.6,28.4,7.9,36.1,6.4,43.8h143.5c-4.2-20-24.3-105.7-25.2-123.1c-0.2-3.8-0.2-7.5,0.1-10.9
				c0.2-4.5,0.9-8.2,1.9-11.3c1-3.2,2.7-7.8,4.9-13.5c8.7-23.2,24.9-66.3,20.6-94.6c-5.5-36.1-41.4-89.9-117.7-89.9
				c-13.2,0-25.8,1.7-37.6,5c-3-1.1-6.1-2.1-9.4-3c14.5-5.2,30.3-7.7,47-7.7c80,0,117.5,56.6,123.3,94.7
				c4.6,29.7-11.3,72.1-20.9,97.4c-2.1,5.5-3.7,10-4.8,13.2c-0.9,2.6-1.4,6-1.7,10C391.5,282.2,391.5,285.7,391.7,289.3z"/>
		</g>
	</g>
</g>
<g>
	<g>
		<g>
			<g>
				<path fill="#DFDFDF" d="M54.9,227.8c27.8,0,50.4,18.4,50.4,41.1c0,11.9-6.3,22.6-16.2,30.2l4.9,21.7l-22.3-13.1
					c-5.2,1.5-10.9,2.4-16.8,2.4c-27.8,0-50.4-18.4-50.4-41.1C4.6,246.3,27.1,227.8,54.9,227.8z"/>
			</g>
		</g>
	</g>
	<g>
		<g>
			<g>
				<g>
					<path fill="#606466" d="M37,270.1c0,3.7-3,6.7-6.7,6.7c-3.7,0-6.7-3-6.7-6.7s3-6.7,6.7-6.7C34,263.4,37,266.4,37,270.1z"/>
				</g>
			</g>
		</g>
		<g>
			<g>
				<g>
					<path fill="#606466" d="M61.7,270.1c0,3.7-3,6.7-6.7,6.7s-6.7-3-6.7-6.7s3-6.7,6.7-6.7S61.7,266.4,61.7,270.1z"/>
				</g>
			</g>
		</g>
		<g>
			<g>
				<g>
					<path fill="#606466" d="M86.3,270.1c0,3.7-3,6.7-6.7,6.7s-6.7-3-6.7-6.7s3-6.7,6.7-6.7S86.3,266.4,86.3,270.1z"/>
				</g>
			</g>
		</g>
	</g>
</g>
<g>
	<g>
		<g>
			<g>
				<path fill="#DFDFDF" d="M429.9,114.4c-34.3,0-62.1,22.7-62.1,50.7c0,14.7,7.7,27.9,20,37.2l-6,26.8l27.5-16.2
					c6.5,1.9,13.4,2.9,20.7,2.9c34.3,0,62.1-22.7,62.1-50.7C492,137.2,464.2,114.4,429.9,114.4z"/>
			</g>
		</g>
	</g>
	<g>
		<g>
			<g>
				<g>
					<rect x="388.1" y="143.7" fill="#606466" width="83.6" height="6.6"/>
				</g>
			</g>
		</g>
		<g>
			<g>
				<g>
					<rect x="388.1" y="160.4" fill="#606466" width="83.6" height="6.6"/>
				</g>
			</g>
		</g>
		<g>
			<g>
				<g>
					<rect x="388.1" y="177" fill="#606466" width="52.5" height="6.6"/>
				</g>
			</g>
		</g>
	</g>
</g>
<g>
	<g>
		<g>
			<g>
				<path fill="#606466" d="M265.1,492c-32.5,0-64-6.3-93.7-18.8c-2.4-1-3.5-3.7-2.5-6.1c1-2.4,3.7-3.5,6.1-2.5
					c28.6,12,58.9,18.1,90.1,18.1c128.4,0,232.9-104.5,232.9-232.9c0-2.6,2.1-4.7,4.7-4.7s4.7,2.1,4.7,4.7
					C507.4,383.3,398.7,492,265.1,492z"/>
			</g>
		</g>
	</g>
	<g>
		<g>
			<g>
				<g>
					<polygon fill="#606466" points="187.6,461.1 136.3,450.1 175.2,485.3 					"/>
				</g>
			</g>
		</g>
	</g>
</g>
<g>
	<g>
		<g>
			<g>
				<path fill="#606466" d="M31.5,210.7c-0.3,0-0.6,0-0.9-0.1c-2.5-0.5-4.2-2.9-3.7-5.4C48.2,90.6,148.4,7.5,265.1,7.5
					c41.5,0,82.5,10.7,118.5,30.9c2.3,1.3,3,4.1,1.8,6.4c-1.3,2.3-4.1,3-6.4,1.8c-34.6-19.4-74-29.7-113.9-29.7
					c-112.2,0-208.5,79.9-229,190.1C35.7,209.1,33.7,210.7,31.5,210.7z"/>
			</g>
		</g>
	</g>
	<g>
		<g>
			<g>
				<g>
					<polygon fill="#606466" points="366.1,48.6 415.8,65.3 381.1,26 					"/>
				</g>
			</g>
		</g>
	</g>
</g>
</svg>
