<?xml version="1.0" encoding="iso-8859-1"?>
<!-- Generator: Adobe Illustrator 19.0.0, SVG Export Plug-In . SVG Version: 6.00 Build 0)  -->
<svg version="1.1" id="Capa_1" xmlns="http://www.w3.org/2000/svg" xmlns:xlink="http://www.w3.org/1999/xlink" x="0px" y="0px"
	 viewBox="0 0 512.002 512.002" style="enable-background:new 0 0 512.002 512.002;" xml:space="preserve">
<path style="fill:#FFDCCE;" d="M432.342,183.868c-8.854,0-16.031,7.178-16.031,16.031v88.17h32.062v-88.17
	C448.372,191.045,441.195,183.868,432.342,183.868z"/>
<path style="fill:#FFD3C1;" d="M440.357,186.03c-2.36-1.367-5.092-2.162-8.015-2.162c-8.854,0-16.031,7.178-16.031,16.031v88.17
	h16.031v-88.17C432.342,193.969,435.57,188.803,440.357,186.03z"/>
<path style="fill:#FFDCCE;" d="M400.28,215.929c-8.854,0-16.031,7.178-16.031,16.031v88.17h32.062v-88.17
	C416.311,223.107,409.133,215.929,400.28,215.929z"/>
<path style="fill:#FFD3C1;" d="M408.295,218.092c-2.36-1.367-5.092-2.162-8.015-2.162c-8.854,0-16.031,7.178-16.031,16.031v88.17
	h16.031v-88.17C400.28,226.031,403.508,220.865,408.295,218.092z"/>
<path style="fill:#FFDCCE;" d="M384.249,272.038c0-8.853-7.177-16.031-16.031-16.031c-8.854,0-16.031,7.178-16.031,16.031v64.124
	h32.062V272.038z"/>
<path style="fill:#FFD3C1;" d="M376.233,258.169c-2.36-1.367-5.092-2.162-8.015-2.162c-8.854,0-16.031,7.178-16.031,16.031v64.124
	h16.031v-64.124C368.218,266.108,371.446,260.942,376.233,258.169z"/>
<g>
	<path style="fill:#FFEEE7;" d="M307.793,360.002l76.455-31.856l96.185-40.077v32.062l-48.093,72.139l-72.139,32.062v80.155h-72.139
		V389.598C288.063,376.654,295.845,364.981,307.793,360.002z"/>
	<path style="fill:#FFEEE7;" d="M480.434,296.084v-64.576c0-9.111-7.6-16.446-16.805-16.013
		c-8.623,0.406-15.256,7.833-15.256,16.466v64.124"/>
	<path style="fill:#FFEEE7;" d="M384.249,327.844l42.368-43.01c6.213-6.307,16.364-6.383,22.671-0.17
		c6.307,6.213,6.383,16.364,0.17,22.671l-42.537,43.181L384.249,327.844z"/>
</g>
<g>
	<path style="fill:#FFCBB6;" d="M449.286,284.664c-1.954-1.925-4.277-3.242-6.737-3.962c1.582,5.401,0.275,11.475-3.956,15.769
		l-42.537,43.181l10.863,10.863l42.537-43.181C455.67,301.026,455.593,290.877,449.286,284.664z"/>
	<polygon style="fill:#FFCBB6;" points="464.403,215.929 464.403,312.115 424.326,376.238 344.172,416.316 344.172,504.486 
		360.202,504.486 360.202,424.331 432.342,392.269 480.434,320.13 480.434,223.945 	"/>
</g>
<path style="fill:#FFDCCE;" d="M79.662,183.868c8.854,0,16.031,7.178,16.031,16.031v88.17H63.631v-88.17
	C63.631,191.045,70.808,183.868,79.662,183.868z"/>
<path style="fill:#FFD3C1;" d="M71.646,186.03c2.36-1.367,5.092-2.162,8.015-2.162c8.854,0,16.031,7.178,16.031,16.031v88.17H79.662
	v-88.17C79.662,193.969,76.432,188.803,71.646,186.03z"/>
<path style="fill:#FFDCCE;" d="M111.723,215.929c8.854,0,16.031,7.178,16.031,16.031v88.17H95.693v-88.17
	C95.693,223.107,102.869,215.929,111.723,215.929z"/>
<path style="fill:#FFD3C1;" d="M103.708,218.092c2.36-1.367,5.092-2.162,8.015-2.162c8.854,0,16.031,7.178,16.031,16.031v88.17
	h-16.031v-88.17C111.723,226.031,108.494,220.865,103.708,218.092z"/>
<path style="fill:#FFDCCE;" d="M127.754,272.038c0-8.853,7.177-16.031,16.031-16.031c8.854,0,16.031,7.178,16.031,16.031v64.124
	h-32.062V272.038z"/>
<path style="fill:#FFD3C1;" d="M135.77,258.169c2.36-1.367,5.092-2.162,8.015-2.162c8.854,0,16.031,7.178,16.031,16.031v64.124
	h-16.031v-64.124C143.785,266.108,140.556,260.942,135.77,258.169z"/>
<g>
	<path style="fill:#FFEEE7;" d="M204.209,360.002l-76.455-31.856l-96.185-40.077v32.062l48.093,72.139l72.139,32.062v80.155h72.139
		V389.598C223.94,376.654,216.157,364.981,204.209,360.002z"/>
	<path style="fill:#FFEEE7;" d="M31.569,296.084v-64.576c0-9.111,7.6-16.446,16.805-16.013c8.623,0.406,15.256,7.833,15.256,16.466
		v64.124"/>
	<path style="fill:#FFEEE7;" d="M127.754,327.844l-42.368-43.01c-6.213-6.307-16.364-6.383-22.671-0.17
		c-6.307,6.213-6.383,16.364-0.17,22.671l42.537,43.181L127.754,327.844z"/>
</g>
<g>
	<path style="fill:#FFCBB6;" d="M62.716,284.664c1.954-1.925,4.277-3.242,6.737-3.962c-1.582,5.401-0.275,11.475,3.956,15.769
		l42.537,43.181l-10.863,10.863l-42.537-43.181C56.333,301.026,56.409,290.877,62.716,284.664z"/>
	<polygon style="fill:#FFCBB6;" points="47.6,215.929 47.6,312.115 87.677,376.238 167.832,416.316 167.832,504.486 
		151.801,504.486 151.801,424.331 79.662,392.269 31.569,320.13 31.569,223.945 	"/>
</g>
<path style="fill:#FF97A4;" d="M255.538,52.825c-97.203-108.003-183.606,0-140.405,86.403s140.405,118.804,140.405,118.804
	s97.203-32.401,140.405-118.804S352.741-55.178,255.538,52.825z"/>
<path style="fill:#FF7D8D;" d="M151.203,139.228c-26.948-53.897-3.466-116.196,41.61-129.23
	c-66.845-17.579-111.143,62.304-77.68,129.23c43.201,86.403,140.405,118.804,140.405,118.804s6.984-2.33,18.035-7.399
	C243.385,236.786,182.828,202.477,151.203,139.228z"/>
<path d="M207.099,353.066l-39.786-16.577c0.005-0.109,0.016-0.216,0.016-0.328v-64.124c0-12.983-10.562-23.545-23.545-23.545
	c-3.003,0-5.873,0.571-8.516,1.6V231.96c0-12.983-10.562-23.545-23.545-23.545c-3.003,0-5.873,0.571-8.516,1.6v-10.117
	c0-12.983-10.562-23.545-23.545-23.545s-23.545,10.562-23.545,23.545v9.673c-2.305-0.906-4.787-1.46-7.388-1.582
	c-6.499-0.314-12.677,1.995-17.38,6.481c-4.636,4.423-7.294,10.633-7.294,17.037v88.623c0,1.483,0.439,2.934,1.262,4.168
	l48.093,72.139c0.79,1.184,1.9,2.12,3.2,2.698l67.676,30.079v75.271c0,4.15,3.364,7.514,7.514,7.514c4.15,0,7.514-3.365,7.514-7.514
	v-80.155c0-2.97-1.749-5.661-4.463-6.867l-70.147-31.176l-45.622-68.433v-86.347c0-4.812,4.139-8.732,8.938-8.506
	c4.464,0.209,8.095,4.229,8.095,8.959v48.776c-3.641,4.22-5.653,9.535-5.695,15.17c-0.047,6.289,2.358,12.22,6.771,16.7
	l42.537,43.181c3.076,3.123,8.311,2.895,11.122-0.46c2.452-2.926,2.259-7.371-0.416-10.086L67.898,302.06
	c-3.26-3.31-3.212-8.783,0.09-12.044s8.79-3.212,12.044,0.09l41.298,41.923c0.798,1.321,2,2.413,3.533,3.052l76.455,31.856
	c9.177,3.823,15.106,12.716,15.106,22.659v114.888c0,4.15,3.364,7.514,7.514,7.514c4.15,0,7.514-3.365,7.514-7.514V389.597
	C231.454,373.569,221.894,359.23,207.099,353.066z M143.785,263.521c4.696,0,8.516,3.82,8.516,8.516v58.195l-17.033-7.097v-51.099
	C135.269,267.341,139.089,263.521,143.785,263.521z M111.723,223.444c4.696,0,8.516,3.82,8.516,8.516v77.546l-17.064-17.322
	c0.016-0.201,0.031-0.404,0.031-0.61v-59.615C103.207,227.264,107.027,223.444,111.723,223.444z M74.143,272.54
	c-1.01-0.008-2.01,0.054-2.998,0.171v-72.812c0-4.696,3.82-8.516,8.516-8.516c4.696,0,8.516,3.82,8.516,8.516v77.409
	C84.158,274.253,79.283,272.578,74.143,272.54z"/>
<path d="M280.549,389.597v114.888c0,4.15,3.364,7.514,7.514,7.514s7.514-3.365,7.514-7.514V389.597
	c0-9.941,5.929-18.835,15.106-22.659l76.455-31.856c1.533-0.639,2.736-1.731,3.533-3.052l41.298-41.923
	c3.253-3.302,8.741-3.351,12.044-0.09c3.302,3.261,3.35,8.734,0.09,12.044l-42.537,43.181c-2.676,2.716-2.868,7.162-0.416,10.086
	c2.811,3.354,8.047,3.583,11.122,0.46l42.537-43.181c4.414-4.481,6.818-10.412,6.771-16.7c-0.042-5.636-2.054-10.95-5.695-15.17
	v-48.776c0-4.73,3.631-8.749,8.095-8.959c4.799-0.225,8.938,3.694,8.938,8.506v86.347l-45.622,68.433l-70.147,31.177
	c-2.713,1.206-4.463,3.898-4.463,6.867v80.155c0,4.15,3.365,7.514,7.514,7.514s7.514-3.365,7.514-7.514v-75.271l67.676-30.079
	c1.301-0.578,2.411-1.514,3.2-2.698l48.093-72.139c0.823-1.234,1.262-2.685,1.262-4.168v-88.623c0-6.405-2.658-12.615-7.294-17.037
	c-4.701-4.487-10.881-6.795-17.38-6.481c-2.601,0.122-5.083,0.676-7.388,1.582V199.9c0-12.983-10.562-23.545-23.545-23.545
	s-23.545,10.562-23.545,23.545v10.117c-2.643-1.029-5.514-1.6-8.516-1.6c-12.983,0-23.545,10.562-23.545,23.545v18.132
	c-2.643-1.029-5.514-1.6-8.516-1.6c-12.983,0-23.545,10.562-23.545,23.545v64.124c0,0.11,0.012,0.218,0.016,0.328l-39.786,16.577
	C290.108,359.23,280.549,373.569,280.549,389.597z M376.734,272.038v51.099l-17.033,7.097v-58.195c0-4.696,3.82-8.516,8.516-8.516
	C372.914,263.521,376.734,267.341,376.734,272.038z M408.796,231.96v59.615c0,0.205,0.014,0.408,0.031,0.61l-17.064,17.322v-77.546
	c0-4.696,3.82-8.516,8.516-8.516C404.976,223.445,408.796,227.264,408.796,231.96z M423.825,277.308v-77.409
	c0-4.696,3.82-8.516,8.516-8.516s8.516,3.82,8.516,8.516v72.812c-0.988-0.117-1.988-0.179-2.998-0.171
	C432.719,272.578,427.844,274.253,423.825,277.308z"/>
<path d="M402.663,142.588c11.625-23.251,15.098-49.609,9.779-74.218c-5.172-23.927-17.881-43.826-35.787-56.03
	c-17.014-11.595-37.112-15.11-58.12-10.158c-21.255,5.009-42.42,18.327-62.997,39.622C234.96,20.509,213.795,7.191,192.541,2.182
	c-21.01-4.952-41.107-1.439-58.121,10.158c-17.907,12.204-30.616,32.103-35.787,56.03c-5.319,24.61-1.847,50.968,9.779,74.218
	c23.086,46.172,61.189,77.027,89.089,94.783c30.135,19.177,54.631,27.448,55.66,27.791c1.534,0.511,3.218,0.511,4.752,0
	c1.028-0.343,25.525-8.614,55.66-27.791C341.473,219.616,379.578,188.76,402.663,142.588z M255.54,250.045
	c-14.912-5.59-96.047-38.901-133.686-114.178c-10.1-20.201-13.13-43.044-8.531-64.322c4.291-19.853,15.066-36.906,29.562-46.786
	c9.446-6.437,20.147-9.708,31.506-9.708c4.798,0,9.716,0.584,14.703,1.759c20.146,4.747,40.621,18.556,60.858,41.041
	c2.941,3.267,8.231,3.267,11.171,0c20.237-22.485,40.714-36.294,60.859-41.041c16.793-3.957,32.772-1.209,46.209,7.948
	c14.496,9.879,25.271,26.932,29.562,46.786c4.599,21.278,1.569,44.121-8.531,64.322c-21.476,42.952-57.185,71.887-83.36,88.597
	C282.464,239.402,262.269,247.529,255.54,250.045z"/>
<g>
</g>
<g>
</g>
<g>
</g>
<g>
</g>
<g>
</g>
<g>
</g>
<g>
</g>
<g>
</g>
<g>
</g>
<g>
</g>
<g>
</g>
<g>
</g>
<g>
</g>
<g>
</g>
<g>
</g>
</svg>
