<?xml version="1.0" encoding="iso-8859-1"?>
<!-- Generator: Adobe Illustrator 19.0.0, SVG Export Plug-In . SVG Version: 6.00 Build 0)  -->
<svg version="1.1" id="Capa_1" xmlns="http://www.w3.org/2000/svg" xmlns:xlink="http://www.w3.org/1999/xlink" x="0px" y="0px"
	 viewBox="0 0 511.175 511.175" style="enable-background:new 0 0 511.175 511.175;" xml:space="preserve">
<path style="fill:#415A6B;" d="M276.836,221.041h-14.933c-9.6,56.533,0,110.933,9.6,164.267c7.467,40.533,14.933,83.2,12.8,124.8
	l14.933,1.067c2.133-43.733-6.4-86.4-12.8-128C276.836,327.708,267.236,275.441,276.836,221.041z"/>
<path style="fill:#F3705A;" d="M267.236,244.508c5.333,4.267-105.6-72.533-76.8-188.8c13.867-42.667,52.267-66.133,77.867-51.2
	c20.267,11.733,32,38.4,34.133,64c13.867-20.267,35.2-27.733,55.467-18.133c27.733,11.733,46.933,40.533,40.533,69.333
	C384.57,184.775,267.236,235.975,267.236,244.508z"/>
<path style="fill:#66C6B9;" d="M351.503,196.508c10.667,16,20.267,33.067,24.533,51.2c4.267,20.267,2.133,41.6-7.467,58.667
	c-9.6,18.133-25.6,32-44.8,39.467l-9.6,3.2c4.267-2.133,6.4-5.333,7.467-9.6c1.067-5.333,1.067-9.6,0-14.933
	c-2.133-12.8-7.467-24.533-10.667-36.267c-3.2-12.8-5.333-25.6-1.067-37.333c3.2-10.667,10.667-18.133,18.133-26.667
	C335.503,214.641,344.036,205.041,351.503,196.508z"/>
<path style="fill:#415A6B;" d="M350.436,214.641c0,0-3.2,11.733-5.333,28.8c0,4.267,0,9.6,0,13.867c0,5.333,0,10.667,0,16
	c0,11.733-2.133,23.467-5.333,35.2c-2.133,5.333-3.2,11.733-6.4,17.067c-2.133,5.333-5.333,10.667-8.533,16
	c-6.4,9.6-12.8,18.133-19.2,24.533s-12.8,10.667-17.067,13.867c-4.267,3.2-7.467,4.267-7.467,4.267l-4.267-6.4
	c0,0,2.133-1.067,6.4-4.267c4.267-3.2,10.667-6.4,17.067-12.8c6.4-5.333,13.867-12.8,19.2-22.4c3.2-4.267,6.4-9.6,8.533-14.933
	c2.133-5.333,4.267-10.667,6.4-16c4.267-10.667,6.4-22.4,6.4-34.133c0-5.333,0-10.667,1.067-16c0-5.333,1.067-9.6,1.067-14.933
	C346.17,226.375,350.436,214.641,350.436,214.641z"/>
<path style="fill:#66C6B9;" d="M111.503,329.841c17.067-7.467,35.2-16,54.4-18.133c20.267-2.133,40.533,4.267,57.6,16
	c16,11.733,28.8,29.867,33.067,50.133l1.067,9.6c-1.067-4.267-4.267-7.467-8.533-8.533c-4.267-2.133-9.6-2.133-14.933-2.133
	c-12.8,1.067-25.6,4.267-38.4,6.4c-12.8,2.133-25.6,2.133-37.333-4.267c-9.6-4.267-17.067-12.8-23.467-21.333
	C126.436,347.975,118.97,339.441,111.503,329.841z"/>
<path style="fill:#415A6B;" d="M129.636,334.108c0,0,10.667,5.333,28.8,8.533c4.267,1.067,9.6,2.133,13.867,2.133
	c5.333,1.067,10.667,1.067,16,2.133c10.667,2.133,23.467,5.333,34.133,9.6c5.333,2.133,10.667,5.333,16,8.533
	c5.333,3.2,9.6,6.4,14.933,9.6c8.533,7.467,16,14.933,21.333,22.4c5.333,7.467,9.6,13.867,11.733,19.2
	c2.133,5.333,3.2,7.467,3.2,7.467l-8.533,3.2c0,0-1.067-3.2-3.2-7.467c-2.133-4.267-5.333-10.667-9.6-18.133
	s-10.667-14.933-19.2-22.4c-4.267-3.2-8.533-7.467-12.8-10.667c-4.267-3.2-9.6-6.4-14.933-8.533
	c-10.667-5.333-21.333-8.533-33.067-11.733c-5.333-1.067-10.667-2.133-16-3.2c-5.333-1.067-9.6-2.133-13.867-3.2
	C140.303,339.441,129.636,334.108,129.636,334.108z"/>
<g>
</g>
<g>
</g>
<g>
</g>
<g>
</g>
<g>
</g>
<g>
</g>
<g>
</g>
<g>
</g>
<g>
</g>
<g>
</g>
<g>
</g>
<g>
</g>
<g>
</g>
<g>
</g>
<g>
</g>
</svg>
