<?xml version="1.0" encoding="iso-8859-1"?>
<!-- Generator: Adobe Illustrator 19.0.0, SVG Export Plug-In . SVG Version: 6.00 Build 0)  -->
<svg xmlns="http://www.w3.org/2000/svg" xmlns:xlink="http://www.w3.org/1999/xlink" version="1.1" id="Layer_1" x="0px" y="0px" viewBox="0 0 512 512" style="enable-background:new 0 0 512 512;" xml:space="preserve">
<circle style="fill:#3A4DE3;" cx="255.996" cy="255.996" r="255.996"/>
<path style="fill:#1C2EDE;" d="M512,255.999c0-25.237-3.67-49.614-10.474-72.647l-86.441-86.44l-76.589,25.972l-64.814-48.368  l1.033,80.866l-19.142,13.537l-70.044-72.007l-10.071,28.2l-28.2,10.071l95.88,104.646L82.883,400.085l101.852,101.852  C207.359,508.481,231.267,512,255.999,512C397.385,512,512,397.385,512,255.999z"/>
<rect x="172.989" y="182.554" transform="matrix(-0.7071 -0.7071 0.7071 -0.7071 105.1599 680.5215)" style="fill:#FFFFFF;" width="41.064" height="271.855"/>
<rect x="190.505" y="189.808" transform="matrix(-0.7071 -0.7071 0.7071 -0.7071 112.411 698.0333)" style="fill:#E1E1E3;" width="20.536" height="271.855"/>
<polygon style="fill:#FFDF47;" points="415.085,96.913 389.113,173.501 437.481,238.316 356.615,237.281 309.92,303.311   285.914,226.083 208.687,202.078 274.715,155.382 273.682,74.517 338.496,122.885 "/>
<polygon style="fill:#FFFFFF;" points="195.6,145.254 223.8,135.184 195.6,125.113 185.529,96.913 175.459,125.113 147.258,135.184   175.459,145.254 185.529,173.454 "/>
<g>
	<polygon style="fill:#E1E1E3;" points="295.982,360.086 324.182,350.015 295.982,339.944 285.911,311.744 275.841,339.944    247.641,350.015 275.841,360.086 285.911,388.286  "/>
	<polygon style="fill:#E1E1E3;" points="421.325,321.815 449.525,311.744 421.325,301.673 411.254,273.474 401.184,301.673    372.984,311.744 401.184,321.815 411.254,350.015  "/>
</g>
<polygon style="fill:#FEC000;" points="437.481,238.315 389.113,173.501 415.085,96.913 415.081,96.914 285.911,226.083   285.914,226.083 309.92,303.311 356.615,237.281 "/>
<g>
</g>
<g>
</g>
<g>
</g>
<g>
</g>
<g>
</g>
<g>
</g>
<g>
</g>
<g>
</g>
<g>
</g>
<g>
</g>
<g>
</g>
<g>
</g>
<g>
</g>
<g>
</g>
<g>
</g>
</svg>
