<?xml version="1.0" encoding="utf-8"?>
<!-- Generator: Adobe Illustrator 24.0.2, SVG Export Plug-In . SVG Version: 6.00 Build 0)  -->
<svg version="1.1" id="Layer_1" xmlns="http://www.w3.org/2000/svg" xmlns:xlink="http://www.w3.org/1999/xlink" x="0px" y="0px"
	 viewBox="0 0 512 512" enable-background="new 0 0 512 512" xml:space="preserve">
<g>
	<g>
		<g>
			<polygon fill="#DFDFDF" points="82.7,90.6 82.2,128.2 88.2,122.1 115,148.9 141.4,122.4 114.7,95.7 120.2,90.2 			"/>
		</g>
	</g>
	<g>
		<g>
			<polygon fill="#DFDFDF" points="9.6,278.7 35.9,305.5 35.9,297 73.7,297 73.7,259.6 35.9,259.6 35.9,251.8 			"/>
		</g>
	</g>
	<g>
		<g>
			<polygon fill="#DFDFDF" points="82.7,466.7 120.2,467.1 114.2,461.1 140.9,434.4 114.5,408 87.8,434.7 82.2,429.1 			"/>
		</g>
	</g>
	<g>
		<g>
			<polygon fill="#DFDFDF" points="435.3,466.7 435.7,429.1 429.7,435.1 403,408.4 376.5,434.8 403.3,461.6 397.7,467.1 			"/>
		</g>
	</g>
	<g>
		<g>
			<polygon fill="#DFDFDF" points="508.3,278.6 482,251.8 482.1,260.3 444.3,260.3 444.3,297.7 482,297.7 482,305.5 			"/>
		</g>
	</g>
	<g>
		<g>
			<polygon fill="#DFDFDF" points="435.3,90.6 397.7,90.2 403.7,96.2 377,122.9 403.4,149.3 430.1,122.6 435.7,128.2 			"/>
		</g>
	</g>
</g>
<g>
	<g>
		<path fill="#606466" d="M289,494.2c-1.6,0-2.9-1.3-2.9-2.9c0-0.5-0.2-13.2,5.8-49.6c0.9-5.3,3.4-16,6.8-23.5
			c0.4-0.8,1-1.4,1.8-1.6c0.8-0.2,1.7-0.1,2.4,0.3l0.5,0.3c3.3,1.7,8.6,3.7,25.5,7.7c16.3,3.8,31.9-0.8,37.6-7.4
			c2.6-3,1.8-8.5,0.7-13.4c-0.3-1.4-0.7-2.8-1-4.1c-1-3.9-1.8-7.2-1.6-9.9c0.5-5,4.9-7.7,8.8-10.1c1.3-0.8,2.7-1.6,3.8-2.6
			c1-0.8,1.7-1.5,2-2.3c0.1-0.3,0.5-1.1,0.2-1.5c-0.3-0.6-2-1.6-6.4-2c-1.4-0.1-2.6-1.3-2.7-2.7c-0.1-1.4,0.8-2.7,2.2-3.1
			c5.3-1.3,9.3-3.3,9.8-4.3c0-0.1,0.1-0.9-0.4-3.6l-0.3-1.8c-0.4-2.4-0.8-5.2-1-7.9c-0.2-2.2-0.1-4.1,0.1-5.8
			c0.1-0.6,0.2-1.3,0.4-1.9c0.4-1.1,1.3-1.9,2.5-2c6.9-0.7,13.6-4.1,14.9-7.6c1.5-4.1-8.3-18.4-15.5-28.8
			c-9.5-13.7-9.3-31.1-9.1-45.1c0-1.7,0-3.4,0-5c0-14-8.5-48.3-18.9-64.1c-3.1-4.7-32.4-46-98.1-46c-76.3,0-112.2,53.7-117.6,89.8
			c-4.3,28.3,11.9,71.4,20.6,94.6c2.1,5.6,3.9,10.3,4.9,13.5c1,3.1,1.6,6.9,1.9,11.3c0.2,3.4,0.2,7.1,0,11
			c-0.4,7.4-4.2,28.7-11.5,63.1c-0.3,1.6-1.9,2.6-3.5,2.3c-1.6-0.3-2.6-1.9-2.3-3.5c7.1-33.7,11-55.2,11.3-62.2
			c0.2-3.7,0.2-7.1,0-10.3c-0.2-4-0.8-7.3-1.6-9.9c-1-3.2-2.7-7.7-4.8-13.2c-9.5-25.3-25.5-67.8-20.9-97.5
			c5.8-38.1,43.4-94.8,123.4-94.8c68.8,0,99.7,43.7,103,48.6c11.3,17.2,19.9,52.7,19.9,67.3c0,1.6,0,3.3,0,5.1
			c-0.2,13.1-0.4,29.5,8.1,41.7c11.6,16.9,18.5,27.6,16.2,34.1c-2.2,6.1-10.3,9.9-17.6,11.2c-0.1,1.1-0.1,2.3,0,3.7
			c0.2,2.5,0.6,5.1,0.9,7.4l0.3,1.8c0.5,3.2,0.6,5.3-0.1,6.9c-0.8,1.9-2.8,3.4-5.2,4.6c0.8,0.6,1.4,1.3,1.9,2.1
			c0.8,1.4,1.5,3.7,0,6.9c-0.7,1.6-1.9,3-3.7,4.4c-1.3,1-2.9,2-4.4,3c-3,1.8-5.8,3.6-6,5.7c-0.1,1.7,0.7,4.8,1.5,7.9
			c0.3,1.4,0.7,2.8,1,4.2c1.4,6.4,2.3,13.6-2,18.6c-6.8,7.8-24.3,13.7-43.4,9.3c-14.1-3.3-20.6-5.3-24.8-7.2
			c-2.6,6.6-4.5,14.8-5.2,19.2c-5.8,35.6-5.7,48.4-5.7,48.5C291.9,492.9,290.7,494.2,289,494.2C289,494.2,289,494.2,289,494.2z"/>
	</g>
</g>
<g>
	<g>
		<g>
			<g>
				<g>
					<path fill="#F7D14D" d="M311.4,181.5c7-10.2,11.1-22.5,11.1-35.7c0-34.8-28.2-63.1-63.1-63.1c-34.8,0-63.1,28.2-63.1,63.1
						c0,13.3,4.1,25.6,11.1,35.7c-0.1,0,4.2,5.2,5.9,7.3c17,20.3,18.9,38.5,23,58.9c15.4,0,30.8,0,46.2,0c4-20.5,6-38.6,23-58.9
						C307.2,186.7,311.5,181.5,311.4,181.5z"/>
				</g>
			</g>
		</g>
		<g>
			<g>
				<g>
					<polygon fill="#606466" points="268,286 250.9,286 239.6,278.7 279.3,278.7 					"/>
				</g>
			</g>
		</g>
		<g>
			<g>
				<g>
					<polygon fill="#606466" points="279.3,253.7 239.6,253.7 236.4,247.6 282.6,247.6 					"/>
				</g>
			</g>
		</g>
		<g>
			<g>
				<g>
					<rect x="239.6" y="253.7" fill="#DFDFDF" width="39.7" height="24.9"/>
				</g>
			</g>
		</g>
		<g>
			<g>
				<g>
					<g>
						<path fill="#606466" d="M238.9,259.2c7-1,14-1.5,21-1.9c7-0.4,14.1-0.6,21.1-0.3c0.9,0,1.6,0.6,1.5,1.3c0,0.6-0.6,1.1-1.3,1.2
							c-7,1-14,1.5-21,1.9c-7,0.3-14.1,0.5-21.1,0.3c-0.9,0-1.6-0.6-1.6-1.3C237.6,259.8,238.1,259.3,238.9,259.2z"/>
					</g>
				</g>
			</g>
			<g>
				<g>
					<g>
						<path fill="#606466" d="M238.3,266.1c7-1,14-1.5,21-1.9c7-0.4,14.1-0.6,21.1-0.3c0.9,0,1.6,0.6,1.5,1.3c0,0.6-0.6,1.1-1.3,1.2
							c-7,1-14,1.5-21,1.9c-7,0.3-14.1,0.6-21.1,0.3c-0.9,0-1.6-0.6-1.6-1.3C237,266.6,237.5,266.2,238.3,266.1z"/>
					</g>
				</g>
			</g>
			<g>
				<g>
					<g>
						<path fill="#606466" d="M237.7,272.9c7-1,14-1.5,21-1.9c7-0.4,14.1-0.6,21.1-0.3c0.9,0,1.6,0.6,1.5,1.3c0,0.6-0.6,1.1-1.3,1.2
							c-7,1-14,1.5-21,1.9c-7,0.3-14.1,0.6-21.1,0.3c-0.9,0-1.6-0.6-1.6-1.3C236.4,273.5,237,273,237.7,272.9z"/>
					</g>
				</g>
			</g>
		</g>
	</g>
	<g>
		<g>
			<g>
				<path fill="#F7D14D" d="M259.3,71.9c-3.2,0-5.9-2.6-5.9-5.9V34.5c0-3.2,2.6-5.9,5.9-5.9c3.2,0,5.9,2.6,5.9,5.9v31.6
					C265.2,69.3,262.6,71.9,259.3,71.9z"/>
			</g>
		</g>
		<g>
			<g>
				<path fill="#F7D14D" d="M203.5,93.8c-1.5,0-3-0.6-4.1-1.7L177,69.7c-2.3-2.3-2.3-6,0-8.3c2.3-2.3,6-2.3,8.3,0l22.3,22.3
					c2.3,2.3,2.3,6,0,8.3C206.5,93.2,205,93.8,203.5,93.8z"/>
			</g>
		</g>
		<g>
			<g>
				<path fill="#F7D14D" d="M179.4,148.8h-31.6c-3.2,0-5.9-2.6-5.9-5.9s2.6-5.9,5.9-5.9h31.6c3.2,0,5.9,2.6,5.9,5.9
					S182.7,148.8,179.4,148.8z"/>
			</g>
		</g>
		<g>
			<g>
				<path fill="#F7D14D" d="M179,227c-1.5,0-3-0.6-4.1-1.7c-2.3-2.3-2.3-6,0-8.3l22.3-22.3c2.3-2.3,6-2.3,8.3,0c2.3,2.3,2.3,6,0,8.3
					l-22.3,22.3C182,226.4,180.5,227,179,227z"/>
			</g>
		</g>
		<g>
			<g>
				<path fill="#F7D14D" d="M334.5,229.1c-1.5,0-3-0.6-4.1-1.7L308,205.1c-2.3-2.3-2.3-6,0-8.3c2.3-2.3,6-2.3,8.3,0l22.3,22.3
					c2.3,2.3,2.3,6,0,8.3C337.5,228.6,336,229.1,334.5,229.1z"/>
			</g>
		</g>
		<g>
			<g>
				<path fill="#F7D14D" d="M336.2,151.8c-3.2,0-5.9-2.6-5.9-5.9c0-3.2,2.6-5.9,5.9-5.9l31.6,0h0c3.2,0,5.9,2.6,5.9,5.9
					c0,3.2-2.6,5.9-5.9,5.9L336.2,151.8L336.2,151.8z"/>
			</g>
		</g>
		<g>
			<g>
				<path fill="#F7D14D" d="M314.3,96c-1.5,0-3-0.6-4.1-1.7c-2.3-2.3-2.3-6,0-8.3l22.3-22.3c2.3-2.3,6-2.3,8.3,0
					c2.3,2.3,2.3,6,0,8.3l-22.3,22.3C317.3,95.4,315.8,96,314.3,96z"/>
			</g>
		</g>
	</g>
</g>
</svg>
