<?xml version="1.0" encoding="iso-8859-1"?>
<!-- Generator: Adobe Illustrator 19.0.0, SVG Export Plug-In . SVG Version: 6.00 Build 0)  -->
<svg version="1.1" id="Capa_1" xmlns="http://www.w3.org/2000/svg" xmlns:xlink="http://www.w3.org/1999/xlink" x="0px" y="0px"
	 viewBox="0 0 512 512" style="enable-background:new 0 0 512 512;" xml:space="preserve">
<path style="fill:#415A6B;" d="M398.933,273.067c-2.133-2.133-3.2-4.267-4.267-7.467c-43.733,60.8-72.533,137.6-84.267,221.867
	c-1.067,7.467,4.267,13.867,11.733,14.933c1.067,0,1.067,0,2.133,0c6.4,0,12.8-5.333,12.8-11.733
	c10.667-81.067,38.4-153.6,81.067-211.2C410.667,280.533,403.2,278.4,398.933,273.067z"/>
<g>
	<polygon style="fill:#FFD15C;" points="396.8,134.4 443.733,184.533 512,173.867 478.933,234.667 509.867,296.533 441.6,283.733 
		393.6,331.733 384,263.467 323.2,232.533 385.067,202.667 	"/>
	<polygon style="fill:#FFD15C;" points="286.933,16 321.067,52.267 371.2,44.8 346.667,88.533 369.067,133.333 320,123.733 
		284.8,158.933 278.4,109.867 234.667,86.4 279.467,65.067 	"/>
</g>
<path style="fill:#415A6B;" d="M216.533,484.267c-16-77.867-49.067-151.467-94.933-214.4c0,7.467-4.267,13.867-10.667,18.133
	c-2.133,1.067-4.267,2.133-7.467,3.2c42.667,58.667,72.533,128,87.467,199.467c1.067,6.4,6.4,10.667,12.8,10.667
	c1.067,0,2.133,0,3.2,0C213.333,499.2,218.667,491.733,216.533,484.267z"/>
<polygon style="fill:#FFD15C;" points="72.533,135.467 120.533,185.6 188.8,174.933 155.733,235.733 187.733,297.6 119.467,284.8 
	70.4,333.867 61.867,264.533 0,233.6 61.867,203.733 "/>
<g>
	<path style="fill:#415A6B;" d="M259.2,506.667C259.2,506.667,258.133,506.667,259.2,506.667c-8.533,0-13.867-6.4-13.867-13.867
		c4.267-74.667,21.333-132.267,51.2-174.933c4.267-6.4,12.8-7.467,18.133-3.2c6.4,4.267,7.467,12.8,3.2,18.133
		c-26.667,38.4-42.667,92.8-46.933,162.133C272,501.333,266.667,506.667,259.2,506.667z"/>
	<path style="fill:#415A6B;" d="M185.6,92.8c-1.067,3.2-3.2,6.4-5.333,8.533c-4.267,4.267-10.667,6.4-17.067,6.4
		c96,141.867,58.667,268.8,57.6,270.933c-2.133,7.467,2.133,14.933,8.533,17.067c1.067,0,3.2,1.067,4.267,1.067
		c5.333,0,10.667-3.2,12.8-9.6C248.533,380.8,290.133,245.333,185.6,92.8z"/>
</g>
<polygon style="fill:#FFD15C;" points="147.2,5.333 181.333,41.6 230.4,34.133 206.933,77.867 229.333,122.667 180.267,113.067 
	145.067,148.267 138.667,99.2 93.867,75.733 138.667,54.4 "/>
<g>
</g>
<g>
</g>
<g>
</g>
<g>
</g>
<g>
</g>
<g>
</g>
<g>
</g>
<g>
</g>
<g>
</g>
<g>
</g>
<g>
</g>
<g>
</g>
<g>
</g>
<g>
</g>
<g>
</g>
</svg>
