<?xml version="1.0" encoding="utf-8"?>
<!-- Generator: Adobe Illustrator 24.0.2, SVG Export Plug-In . SVG Version: 6.00 Build 0)  -->
<svg version="1.1" id="Layer_1" xmlns="http://www.w3.org/2000/svg" xmlns:xlink="http://www.w3.org/1999/xlink" x="0px" y="0px"
	 viewBox="0 0 512 512" enable-background="new 0 0 512 512" xml:space="preserve">
<g>
	<g>
		<path fill="#77D0DE" d="M364.7,499.4H180.4c0,0,30.5-134.5,31.7-157.8c0.2-4.6,0.2-9,0-13c-0.3-5-1-9.4-2.2-13
			c-6.6-20.9-38-90.1-31.3-133.8c6.6-43.6,49.5-112.9,147.4-112.9c78.1,0,115.4,46.5,123,57.9c13.4,20.2,23.7,63,23.7,80.4
			c0,17.4-1.9,41.3,10.4,59.2c12.3,17.9,21.7,32,19.3,38.5c-2.2,6.2-12.1,10.7-21.2,11.7c-0.2,0.5-0.3,1.1-0.3,1.7
			c-0.3,2-0.3,4.1-0.1,6.3c0.2,4,1,8.2,1.5,11.5c0.4,3,0.7,5.3,0.2,6.4c-1.4,3.2-9.5,6-14.5,7.2c9,0.7,12.9,3.9,10.4,9.3
			c-0.7,1.5-2,2.9-3.5,4c-5.2,4.2-13.6,7-14.1,13c-0.3,3.7,1.7,9.7,3.1,16c1.6,7.2,2.5,14.8-1.7,19.6c-7.8,9-28.2,15.2-49.6,10.2
			c-20-4.6-27.3-7.2-32-9.7c-0.4-0.2-0.7-0.4-0.9-0.5c-4,8.8-7,21.4-8.1,27.8C364.4,484,364.7,499.4,364.7,499.4z"/>
	</g>
</g>
<g>
	<g>
		<path fill="#FFFFFF" d="M445.7,214.4c0,64.5-52.3,116.9-116.9,116.9c-64.5,0-116.9-52.3-116.9-116.9
			c0-64.5,52.3-116.9,116.9-116.9C393.4,97.5,445.7,149.9,445.7,214.4z"/>
	</g>
</g>
<g>
	<g>
		<path fill="#FCD751" d="M129.6,383.2c0.6-2.9,0.9-5.9,0.9-8.9c0-3-0.3-6-0.9-8.9l17.3-17.5l-6.8-11.8l-23.8,6.3
			c-2.2-2-4.7-3.8-7.3-5.3c-2.6-1.5-5.4-2.7-8.2-3.7l-6.5-23.7H80.9l-6.5,23.7c-2.8,0.9-5.6,2.2-8.2,3.7c-2.6,1.5-5,3.3-7.3,5.3
			l-23.8-6.3l-6.8,11.8l17.3,17.5c-0.6,2.9-0.9,5.9-0.9,8.9c0,3,0.3,6,0.9,8.9l-17.3,17.5l6.8,11.8l23.8-6.3c2.2,2,4.7,3.8,7.3,5.3
			c2.6,1.5,5.3,2.7,8.2,3.7l6.5,23.8h13.6l6.5-23.8c2.9-0.9,5.6-2.2,8.2-3.7c2.6-1.5,5-3.3,7.3-5.3l23.8,6.3l6.8-11.8L129.6,383.2z
			 M101.9,399c-8.5,5.1-20,5.1-28.5,0c-8.8-5-14.4-14.7-14.3-24.7c-0.1-10,5.5-19.7,14.3-24.7c8.5-5.1,20-5.1,28.5,0
			c8.8,5,14.4,14.7,14.3,24.7C116.3,384.3,110.7,394,101.9,399z"/>
	</g>
</g>
<g>
	<g>
		<path fill="#64A807" d="M400.8,231.6c10-1.6,20-4.6,29.7-9.2c0.4-5.3,0.5-10.7,0-16.1c-9.8-4.6-19.8-7.7-29.7-9.2
			c-0.9-3.8-2.1-7.5-3.6-11.1c-1.5-3.6-3.3-7-5.3-10.3c5.9-8.2,10.9-17.4,14.5-27.6c-3.5-4.1-7.3-7.9-11.4-11.4
			c-10.1,3.7-19.4,8.5-27.6,14.5c-3.3-2-6.8-3.8-10.3-5.3c-3.6-1.5-7.3-2.7-11.1-3.6c-1.6-10-4.6-20-9.2-29.7
			c-5.3-0.4-10.7-0.5-16.1,0c-4.6,9.8-7.7,19.8-9.2,29.7c-3.8,0.9-7.5,2.1-11.1,3.6c-3.6,1.5-7,3.3-10.4,5.3
			c-8.2-6-17.4-10.9-27.6-14.5c-4.1,3.5-7.9,7.3-11.4,11.4c3.7,10.1,8.5,19.4,14.5,27.5c-2,3.3-3.8,6.8-5.3,10.3
			c-1.5,3.6-2.7,7.3-3.6,11.1c-10,1.6-20,4.6-29.7,9.2c-0.4,5.3-0.5,10.7,0,16.1c9.8,4.6,19.8,7.7,29.7,9.2
			c0.9,3.8,2.1,7.5,3.6,11.1c1.5,3.6,3.3,7,5.3,10.4c-6,8.2-10.9,17.4-14.5,27.6c3.5,4.1,7.3,7.9,11.4,11.4
			c10.1-3.6,19.4-8.5,27.5-14.5c3.3,2,6.8,3.8,10.3,5.3c3.6,1.5,7.3,2.7,11.1,3.6c1.6,10,4.6,20,9.2,29.8c5.3,0.4,10.7,0.5,16.1,0
			c4.6-9.8,7.7-19.7,9.2-29.7c3.8-0.9,7.4-2.1,11-3.6c3.6-1.5,7-3.3,10.4-5.3c8.2,5.9,17.4,10.8,27.6,14.5
			c4.1-3.5,7.9-7.3,11.4-11.4c-3.7-10.1-8.5-19.4-14.5-27.5c2-3.3,3.8-6.8,5.3-10.3C398.7,239.1,399.9,235.4,400.8,231.6z
			 M347.2,258.7c-11.7,4.9-25,4.9-36.7,0c-11.7-4.8-21.1-14.2-26-25.9c-4.9-11.7-4.9-25,0-36.7c4.8-11.7,14.2-21.1,26-25.9
			c11.7-4.9,25-4.9,36.7,0c11.7,4.8,21.1,14.2,25.9,25.9c4.9,11.7,4.9,25,0,36.7C368.3,244.4,358.9,253.9,347.2,258.7z"/>
	</g>
</g>
<g>
	<g>
		<path fill="#606466" d="M87.7,444.2c-38.6,0-70-31.4-70-70c0-18.7,7.6-36.6,20.9-49.8l-0.1-0.1l3.3-2.9l221.4-192.2l0.1,0.2
			c18.8-14.5,41.8-22.4,65.5-22.4c59.2,0,107.4,48.2,107.4,107.4c0,39.2-20.9,74.5-54.9,93.6l0.1,0.1l-5.4,2.7L114.3,439.1l-0.1-0.2
			C105.7,442.4,96.8,444.2,87.7,444.2z M52.1,326.8l-3.2,2.9c-13,11.3-20.4,27.5-20.4,44.6c0,32.6,26.6,59.2,59.2,59.2
			c9,0,17.8-2,26-6.1l4.1-2l0,0.1l253.5-124.3c33.4-16.4,54.2-49.6,54.2-86.7c0-53.3-43.3-96.6-96.6-96.6
			c-23.2,0-45.7,8.4-63.3,23.7l-4.7,4.1l0-0.1L52.1,326.8z"/>
	</g>
</g>
<g>
	<g>
		<g>
			<path fill="#DFDFDF" d="M38,284.8c-2,0-3.9-1.1-4.8-3c-3.2-6.6-6.1-13.5-8.5-20.5c-1-2.8,0.5-5.9,3.3-6.8c2.8-1,5.9,0.5,6.8,3.3
				c2.3,6.6,4.9,13.1,8,19.3c1.3,2.7,0.2,5.9-2.5,7.2C39.6,284.7,38.8,284.8,38,284.8z M21.6,230.1c-2.7,0-5-2-5.3-4.7
				c-0.9-7.3-1.5-14.7-1.5-22.1c0-3,2.4-5.4,5.3-5.4c2.7-0.1,5.4,2.4,5.4,5.3c0.1,7,0.6,14,1.4,20.8c0.4,2.9-1.7,5.6-4.6,6
				C22,230.1,21.8,230.1,21.6,230.1z M23.3,173c-0.3,0-0.7,0-1-0.1c-2.9-0.6-4.8-3.4-4.3-6.3c1.4-7.3,3.2-14.5,5.5-21.5
				c0.9-2.8,3.9-4.4,6.8-3.5c2.8,0.9,4.4,3.9,3.5,6.8c-2.1,6.6-3.9,13.4-5.2,20.2C28.1,171.2,25.8,173,23.3,173z M43,119.3
				c-0.9,0-1.8-0.2-2.6-0.7c-2.6-1.5-3.5-4.7-2-7.3c3.6-6.4,7.7-12.7,12-18.6c1.8-2.4,5.1-2.9,7.5-1.1c2.4,1.8,2.9,5.1,1.1,7.5
				c-4.1,5.6-7.9,11.5-11.3,17.5C46.7,118.4,44.9,119.3,43,119.3z M78.7,74.7c-1.5,0-2.9-0.6-4-1.8c-2-2.2-1.8-5.6,0.4-7.6
				c5.5-5,11.3-9.6,17.3-13.9c2.4-1.7,5.8-1.1,7.5,1.3c1.7,2.4,1.1,5.8-1.3,7.5c-5.6,4-11.1,8.4-16.3,13.1
				C81.3,74.2,80,74.7,78.7,74.7z M126.6,43.6c-2.1,0-4-1.2-4.9-3.2c-1.2-2.7,0-5.9,2.8-7.1c6.8-3,13.7-5.6,20.8-7.7
				c2.9-0.9,5.9,0.8,6.7,3.6c0.9,2.8-0.7,5.8-3.6,6.7c-6.6,2-13.2,4.4-19.6,7.2C128.1,43.4,127.3,43.6,126.6,43.6z M254.7,37.6
				c-0.6,0-1.1-0.1-1.7-0.3c-5-1.7-10.1-3.1-15.3-4.3c-2.9-0.7-4.7-3.6-4-6.5c0.7-2.9,3.6-4.7,6.5-4c5.5,1.3,11,2.8,16.2,4.6
				c2.8,0.9,4.4,4,3.4,6.8C259.1,36.1,257,37.6,254.7,37.6z M181.9,29.3c-2.7,0-5.1-2.1-5.4-4.9c-0.3-3,1.9-5.6,4.9-5.9
				c7.3-0.7,14.8-0.9,22.1-0.7c3,0.1,5.3,2.6,5.2,5.5c-0.1,3-2.7,5.4-5.5,5.2c-6.9-0.2-14,0-20.9,0.7
				C182.2,29.3,182.1,29.3,181.9,29.3z"/>
		</g>
	</g>
</g>
<g>
	<g>
		<g>
			<g>
				<polygon fill="#DFDFDF" points="238.4,41.8 297.8,52.6 251.7,13.5 				"/>
			</g>
		</g>
	</g>
</g>
</svg>
