<?xml version="1.0" encoding="utf-8"?>
<!-- Generator: Adobe Illustrator 24.0.2, SVG Export Plug-In . SVG Version: 6.00 Build 0)  -->
<svg version="1.1" id="Layer_1" xmlns="http://www.w3.org/2000/svg" xmlns:xlink="http://www.w3.org/1999/xlink" x="0px" y="0px"
	 viewBox="0 0 512 512" enable-background="new 0 0 512 512" xml:space="preserve">
<g>
	<path fill="#92E0EA" d="M455.8,299.7h-400c-12.9,0-23.3-10.4-23.3-23.3V30.6C32.5,17.8,43,7.3,55.8,7.3h400
		c12.9,0,23.3,10.4,23.3,23.3v245.7C479.1,289.2,468.7,299.7,455.8,299.7z"/>
</g>
<g>
	<polygon fill="#92E0EA" points="102.9,298.5 189.7,335.8 155.2,249.2 	"/>
</g>
<g>
	<path fill="#FCD751" d="M255.8,7.3h-200C43,7.3,32.5,17.8,32.5,30.6v122.9h223.3V7.3z"/>
</g>
<g>
	<path fill="#F77B55" d="M455.8,7.3h-200v146.2h223.3V30.6C479.1,17.8,468.7,7.3,455.8,7.3z"/>
</g>
<g>
	<path fill="#92E0EA" d="M32.5,153.5v122.9c0,12.9,10.4,23.3,23.3,23.3h200V153.5H32.5z"/>
</g>
<g>
	<path fill="#F2F2F2" d="M255.8,299.7h200c12.9,0,23.3-10.4,23.3-23.3V153.5H255.8V299.7z"/>
</g>
<g>
	<g>
		<g>
			<path fill="#353F49" d="M322.8,315.5c0,31.6-25.6,57.2-57.2,57.2s-57.2-25.6-57.2-57.2c0-31.6,25.6-57.2,57.2-57.2
				S322.8,283.9,322.8,315.5z"/>
		</g>
	</g>
	<g>
		<g>
			<path fill="#353F49" d="M265.6,361.1c-56.5,0-102.3,45.8-102.3,102.3h204.7C367.9,406.9,322.1,361.1,265.6,361.1z"/>
		</g>
	</g>
</g>
<g>
	<path fill="#353F49" d="M154.9,84.5c0,5.9-4.8,10.7-10.7,10.7c-5.9,0-10.7-4.8-10.7-10.7c0-5.9,4.8-10.7,10.7-10.7
		C150.1,73.9,154.9,78.7,154.9,84.5z"/>
</g>
<g>
	<path fill="#353F49" d="M154.7,226.6c0,5.9-4.8,10.7-10.7,10.7c-5.9,0-10.7-4.8-10.7-10.7c0-5.9,4.8-10.7,10.7-10.7
		C149.9,215.9,154.7,220.7,154.7,226.6z"/>
</g>
<g>
	<g>
		<path fill="#353F49" d="M113.7,226.6c0,5.9-4.8,10.7-10.7,10.7c-5.9,0-10.7-4.8-10.7-10.7c0-5.9,4.8-10.7,10.7-10.7
			C108.9,215.9,113.7,220.7,113.7,226.6z"/>
	</g>
	<g>
		<path fill="#353F49" d="M195.8,226.6c0,5.9-4.8,10.7-10.7,10.7c-5.9,0-10.7-4.8-10.7-10.7c0-5.9,4.8-10.7,10.7-10.7
			C191,215.9,195.8,220.7,195.8,226.6z"/>
	</g>
</g>
<g>
	<path fill="#353F49" d="M355.8,84.5c0,5.9-4.8,10.7-10.7,10.7c-5.9,0-10.7-4.8-10.7-10.7c0-5.9,4.8-10.7,10.7-10.7
		C351.1,73.9,355.8,78.7,355.8,84.5z"/>
</g>
<g>
	<path fill="#353F49" d="M394.6,84.5c0,5.9-4.8,10.7-10.7,10.7c-5.9,0-10.7-4.8-10.7-10.7c0-5.9,4.8-10.7,10.7-10.7
		C389.8,73.9,394.6,78.7,394.6,84.5z"/>
</g>
<g>
	<path fill="#353F49" d="M320,226.6c0,5.9-4.8,10.7-10.7,10.7c-5.9,0-10.7-4.8-10.7-10.7c0-5.9,4.8-10.7,10.7-10.7
		C315.2,215.9,320,220.7,320,226.6z"/>
</g>
<g>
	<path fill="#353F49" d="M358.8,226.6c0,5.9-4.8,10.7-10.7,10.7s-10.7-4.8-10.7-10.7c0-5.9,4.8-10.7,10.7-10.7
		S358.8,220.7,358.8,226.6z"/>
</g>
<g>
	<path fill="#353F49" d="M398.4,226.6c0,5.9-4.8,10.7-10.7,10.7c-5.9,0-10.7-4.8-10.7-10.7c0-5.9,4.8-10.7,10.7-10.7
		C393.7,215.9,398.4,220.7,398.4,226.6z"/>
</g>
<g>
	<path fill="#353F49" d="M437.2,226.6c0,5.9-4.8,10.7-10.7,10.7c-5.9,0-10.7-4.8-10.7-10.7c0-5.9,4.8-10.7,10.7-10.7
		C432.4,215.9,437.2,220.7,437.2,226.6z"/>
</g>
<g>
	<path fill="#FFDB7A" d="M260.9,95.2h-10.2c-10.5,0-18.9-8.5-18.9-18.9l0,0c0-10.5,8.5-18.9,18.9-18.9h10.2
		c10.5,0,18.9,8.5,18.9,18.9l0,0C279.8,86.7,271.4,95.2,260.9,95.2z"/>
</g>
<g>
	<path fill="#F77B55" d="M345.8,157.9v-10.2c0-10.5,8.5-18.9,18.9-18.9l0,0c10.5,0,18.9,8.5,18.9,18.9v10.2
		c0,10.5-8.5,18.9-18.9,18.9l0,0C354.3,176.9,345.8,168.4,345.8,157.9z"/>
</g>
<g>
	<path fill="#F2F2F2" d="M250.7,204.2h10.2c10.5,0,18.9,8.5,18.9,18.9l0,0c0,10.5-8.5,18.9-18.9,18.9h-10.2
		c-10.5,0-18.9-8.5-18.9-18.9l0,0C231.8,212.7,240.3,204.2,250.7,204.2z"/>
</g>
<g>
	<path fill="#92E0EA" d="M163,130.5v44.8c0,0.9-0.7,1.6-1.6,1.6h-34.6c-0.9,0-1.6-0.7-1.6-1.6v-44.8c0-0.9,0.7-1.6,1.6-1.6h34.6
		C162.2,128.8,163,129.6,163,130.5z"/>
</g>
<g>
	<g>
		<path fill="#FFFFFF" d="M265.2,354.5c-14.5,0-27.9-7.9-34.9-20.6l4.1-2.3c6.3,11.2,18.1,18.2,30.9,18.2c12.8,0,24.6-7,30.9-18.2
			l4.1,2.3C293.1,346.6,279.7,354.5,265.2,354.5z"/>
	</g>
</g>
<g>
	<rect x="32.5" y="444.7" fill="#CDCCCA" width="442.6" height="18.7"/>
</g>
<g>
	<rect x="32.5" y="454.1" fill="#F2F2F2" width="442.6" height="18.7"/>
</g>
</svg>
