<?xml version="1.0" encoding="iso-8859-1"?>
<!-- Generator: Adobe Illustrator 22.1.0, SVG Export Plug-In . SVG Version: 6.00 Build 0)  -->
<svg version="1.1" id="Layer_1" xmlns="http://www.w3.org/2000/svg" xmlns:xlink="http://www.w3.org/1999/xlink" x="0px" y="0px"
	 viewBox="0 0 30 28.589" style="enable-background:new 0 0 30 28.589;" xml:space="preserve">
<g id="human-head-communicate-phone-7">
	<path d="M21,26.589c-0.551,0-1-0.449-1-1v-3h10v-1H20v-15h10v-1H20v-2c0-0.551,0.449-1,1-1h9v-1h-9c-1.104,0-2,0.896-2,2v22
		c0,1.104,0.896,2,2,2h9v-1H21z"/>
	<circle cx="27" cy="24.589" r="1"/>
	<rect x="24" y="3.589" width="1" height="1"/>
	<rect x="26" y="3.589" width="4" height="1"/>
	<path d="M10,10.589c0-4.971-4.029-10-9-10c-0.338,0-0.671,0.022-1,0.059v1.011c0.328-0.041,0.661-0.069,1-0.069
		c4.579,0,8,4.751,8,9v0.268l2.985,5.179c0.019,0.038,0.02,0.077,0.004,0.116c-0.011,0.026-0.028,0.047-0.05,0.062L9,16.757v0.832
		c0,0.354,0.018,0.682,0.039,1H7v1h2.125c0.004,0.039,0.008,0.086,0.012,0.125c0.061,0.586,0.143,1.389,0.041,1.56
		c-0.001,0.001-0.135,0.1-0.67,0.1c-0.85,0-2.206-0.24-4.265-0.755L3,20.309v6.853l-3-1.091v1.064l4,1.455v-7c8,2,6,0,6-4
		l2.221-0.411c0.657-0.219,0.968-0.97,0.658-1.589L10,10.589z"/>
	<path d="M7,6.689c-1.201-2.3-3.385-4.1-6-4.1c-0.34,0-0.672,0.033-1,0.08v6.703L7,6.689z"/>
	<circle cx="6" cy="12.589" r="1"/>
	<polygon points="12.92,0.732 15.994,3.59 10,3.589 10,4.589 15.992,4.59 12.92,7.446 13.602,8.179 18,4.089 13.602,0 	"/>
</g>
</svg>
